
	<svg xmlns="http://www.w3.org/2000/svg" xmlns:xlink="http://www.w3.org/1999/xlink" version="1.1" width="128" height="128" viewBox="0 0 100 100">


		<defs>
			<linearGradient id="Gradient_1" gradientUnits="userSpaceOnUse" x1="50" y1="53" x2="50" y2="0" spreadMethod="pad">
<stop offset="0%" stop-color="#FFFFFF" stop-opacity="0.1"/>

<stop offset="100%" stop-color="#FFFFFF" stop-opacity="0.4"/>
</linearGradient><linearGradient id="Gradient_2" gradientUnits="userSpaceOnUse" x1="100" y1="50" x2="0" y2="50" spreadMethod="pad">
<stop offset="0%" stop-color="#FFFFFF" stop-opacity="0.1"/>

<stop offset="100%" stop-color="#FFFFFF" stop-opacity="0.4"/>
</linearGradient><linearGradient id="Gradient_3" gradientUnits="userSpaceOnUse" x1="0" y1="50" x2="100" y2="50" spreadMethod="pad">
<stop offset="0%" stop-color="#FFFFFF" stop-opacity="0.1"/>

<stop offset="100%" stop-color="#FFFFFF" stop-opacity="0.4"/>
</linearGradient><g id="background">
<path fill="url(#background-gradient)" stroke="none" d=" M 0 0 L 0 100 100 100 100 0 0 0 Z"/>
</g><mask id="mask">
<path fill="#FFFFFF" stroke="none" d=" M 0 0 L 0 100 100 100 100 0 0 0 Z"/>
</mask><g id="gloss-top">
<path fill="url(#Gradient_1)" stroke="none" d=" M 100 53.1 L 100 0 0 0 0 53.1 100 53.1 Z"/>
</g><g id="gloss-right">
<path fill="url(#Gradient_2)" stroke="none" d=" M 100 100 L 100 0 0 0 100 100 Z"/>
</g><g id="gloss-left">
<path fill="url(#Gradient_3)" stroke="none" d=" M 0 0 L 0 100 100 0 0 0 Z"/>
</g>
			
	<linearGradient id="background-gradient" x1="0" y1="0" y2="1" x2="0" >
		<stop stop-color="#F7A8BE" offset="0%"/>
		<stop stop-color="#F7A8BE" offset="100%"/>
	</linearGradient>

			
			
			<g transform="scale(3.4482758620689653) translate(-3.5 2.5)" id="picture"><path d="M27 24.5h-6.5V24c0-.276-.224-.5-.5-.5h-.5V23c0-.276-.224-.5-.5-.5h-.5v-2.025c6.108-.265 11-5.303 11-11.475 0-6.34-5.16-11.5-11.5-11.5-.2 0-.394.02-.59.03-.05-.015-.097-.03-.15-.03-.075 0-.144.02-.208.048C11.154-1.968 6.5 2.978 6.5 9c0 6.172 4.89 11.21 11 11.475V22.5H17c-.276 0-.5.224-.5.5v.5H16c-.276 0-.5.224-.5.5v.5H9c-.276 0-.5.224-.5.5s.224.5.5.5h6.5v.5c0 .276.224.5.5.5h4c.276 0 .5-.224.5-.5v-.5H27c.276 0 .5-.224.5-.5s-.224-.5-.5-.5zm-5.966-5.45c.175-.26.342-.568.444-.905.154-.508.235-2.23-.017-2.836-.25-.61-.95-.98-1.7-1.38-.47-.25-1.26-.67-1.27-.86.04-.095.26-.35.39-.5.35-.4.62-.72.62-1.08 0-.73-.39-1.386-.97-2 .714.45 1.42.81 1.787.96.46.19 1.088.117 1.75.037.46-.056 1.034-.125 1.24-.038.08.04.264.264.37.396.19.23.364.442.568.57.42.26.94.25 1.445.243.34-.007.816-.014.914.122.27.378.17 1.906-.085 3.104-.018.08-.01.15.005.22-1.332 1.855-3.247 3.26-5.482 3.935zm-8.13-17.843c-.136-.19-.346-.337-.55-.48-.113-.08-.298-.21-.358-.284 0-.013-.01-.023-.01-.036 1.354-.95 2.942-1.586 4.66-1.81l-.01.043c-.135.553-.275 1.124-.098 1.552.088.21.692 1.286 1.44 1.286.354 0 .675-.267 1.08-.604.118-.098.297-.247.417-.328.085.09.197.243.266.336.16.206.3.4.47.524.2.144.45.246.69.345.156.07.418.18.546.27-.09.078-.22.17-.307.23-.21.15-.41.29-.536.468-.295.41-.527 1.06-.773 1.745-.3.83-.67 1.868-1.037 2.1-.108.024-.45-.05-.65-.092-.563-.12-1.333-.283-1.594.348-.184.44-.01.873.27 1.253-.22-.16-.44-.32-.664-.476-.935-.667-1.82-1.295-2.24-1.877-.105-.15-.286-.357-.49-.59-.305-.346-.87-.99-.928-1.234-.036-.164.14-.564.267-.856.26-.596.553-1.27.15-1.826zM28.5 9c0 1.37-.272 2.678-.752 3.88.006-.656-.07-1.294-.343-1.673-.4-.558-1.12-.55-1.738-.538-.343 0-.732.01-.904-.1-.064-.04-.217-.23-.318-.35-.228-.28-.462-.57-.753-.69-.46-.19-1.087-.117-1.75-.037-.46.056-1.03.126-1.25.035-1.27-.527-2.864-1.645-3.176-2.177.133.02.292.053.406.08.505.105.98.206 1.34-.017.71-.438 1.11-1.554 1.498-2.634.213-.59.432-1.203.644-1.497.04-.048.2-.163.307-.238.39-.276.87-.62.79-1.14-.1-.63-.72-.886-1.22-1.093-.184-.074-.38-.154-.48-.23-.05-.04-.17-.2-.244-.306-.278-.36-.584-.78-1.052-.78-.352 0-.673.267-1.08.604-.13.108-.33.274-.446.35-.158-.11-.425-.44-.51-.642-.047-.14.078-.656.146-.93l.082-.36c.108-.006.21-.02.31-.02 5.79 0 10.5 4.71 10.5 10.5zm-21 0c0-3.193 1.438-6.053 3.694-7.98.158.21.382.38.586.525.11.077.275.194.314.247.06.11-.164.62-.26.837-.214.49-.436.99-.32 1.48.105.45.542.97 1.148 1.66.18.202.34.383.432.51.517.72 1.467 1.393 2.472 2.107 1.375.98 2.934 2.085 2.944 3.024-.036.094-.257.35-.39.5-.346.404-.62.72-.62 1.08 0 .86.91 1.346 1.79 1.813.505.27 1.135.603 1.248.877.12.293.11 1.75-.017 2.166-.2.69-.84 1.263-.85 1.27-.07.07-.12.156-.14.25-.5.072-1 .123-1.52.123-5.79 0-10.5-4.71-10.5-10.5zm12 16.5h-3v-1h.5c.276 0 .5-.224.5-.5v-.5h1v.5c0 .276.224.5.5.5h.5v1z"/></g>
			
	<linearGradient id="picture-gradient" x1="0" y1="0" y2="1" x2="0" >
		<stop stop-color="#ffffff" offset="0%"/>
		<stop stop-color="#e5eff9" offset="100%"/>
	</linearGradient>

		</defs>

		

			<use xlink:href="#background" fill="url(#background-gradient)" />

		

			<g mask="url(#mask)">
				<g transform="
				        translate(
                                50 50
)
                            translate(0 0)  scale(0.7500000000000002)  
                            translate(
                                -50 -50
)">
						<use xlink:href="#picture" fill="url(#picture-gradient)"  />
				</g>
			</g>

		

			<use xlink:href="#gloss-left" opacity="1" />


	</svg>
